<svg xmlns="http://www.w3.org/2000/svg" viewBox="0 0 18.24 18.1" fill="currentColor">
    <path d="M13.61,9.91c-1.3.41-2.65.08-2.64-1.66,0-2.66,6.24-4.89,7.11-7.21.21-.58.23-1.06-.05-1.04-.2.01-.04.3-.48.74-2.58,2.59-6.92,2.58-10.24,4.07C5.13,5.79-1.26,8.8.22,15.5c.07.32.26,1.39.45,1.39.23,0,.22-.63.22-1.4-.05-3.99,4.68-5.11,6.21-7.72.18-.31.5-.75.58-.55.04.1,0,.24-.05.52-.48,2.14-2.72,3.52-2.09,5.05.82,1.99,3.2.51,3.93-.77.2-.35.31-.58.44-.53.1.03.09.44.03.8-.39,2.31-.92,3.6-2.61,4.92-.54.42-1.39.51-1.28.83.03.08.39.07.69.05,4.49-.29,8.25-5.59,9.25-9.05.1-.24.14-.47.03-.56-.14-.1-.33.14-.53.31-.51.45-1.22.92-1.87,1.13h-.01Z"/>
</svg>
